<?xml version="1.0" encoding="UTF-8"?>
<svg id="Layer_1" data-name="Layer 1" xmlns="http://www.w3.org/2000/svg" viewBox="0 0 851.97 771.42">
  <defs>
    <style>
      .cls-1 {
        fill: #000;
        stroke-width: 0px;
      }
    </style>
  </defs>
  <path class="cls-1" d="M708.57,353.42c0-16.14-13.45-28.7-28.7-28.7h-26.01c-4.48,0-8.07-2.69-8.97-7.18-4.48-13.45-8.97-26.01-16.14-37.67-1.79-3.59-1.79-8.97,1.79-11.66l18.84-18.84c11.66-11.66,11.66-29.6,0-41.26l-44.85-44.85c-11.66-11.66-29.6-11.66-41.26,0l-18.84,18.84c-2.69,2.69-8.07,3.59-11.66,1.79-12.56-6.28-25.11-11.66-37.67-16.14-4.48-.9-7.18-5.38-7.18-8.97v-26.01c0-16.14-13.45-28.7-28.7-28.7h-63.68c-16.14,0-29.6,13.45-28.7,28.7v26.01c0,4.48-2.69,8.07-7.18,8.97-13.45,4.48-26.01,8.97-37.67,16.14-3.59,1.79-8.97,1.79-11.66-1.79l-18.84-18.84c-11.66-11.66-29.6-11.66-41.26,0l-44.85,44.85c-11.66,11.66-11.66,29.6,0,41.26l18.84,18.84c2.69,2.69,3.59,8.07,1.79,11.66-6.28,12.56-11.66,25.11-16.14,37.67-.9,4.48-5.38,7.18-8.97,7.18h-26.01c-16.14,0-28.7,13.45-28.7,28.7v63.68c0,16.14,13.45,28.7,28.7,28.7h26.01c4.48,0,8.07,2.69,8.97,7.18,4.48,13.45,8.97,26.01,16.14,37.67,1.79,3.59,1.79,8.97-1.79,11.66l-18.84,18.84c-11.66,11.66-11.66,29.6,0,41.26l44.85,44.85c11.66,11.66,29.6,11.66,41.26,0l18.84-18.84c2.69-2.69,8.07-3.59,11.66-1.79,12.56,6.28,25.11,11.66,37.67,16.14,4.48.9,7.18,5.38,7.18,8.97v26.01c0,16.14,13.45,28.7,28.7,28.7h63.68c16.14,0,28.7-13.45,28.7-28.7v-26.01c0-4.48,2.69-8.07,7.18-8.97,13.45-4.48,26.01-8.97,37.67-16.14,3.59-1.79,8.97-1.79,11.66,1.79l18.84,18.84c11.66,11.66,29.6,11.66,41.26,0l44.85-44.85c11.66-11.66,11.66-29.6,0-41.26l-18.84-18.84c-2.69-2.69-3.59-8.07-1.79-11.66,6.28-12.56,11.66-25.11,16.14-37.67.9-4.48,5.38-7.18,8.97-7.18h26.01c16.14,0,28.7-13.45,28.7-28.7v-63.68ZM544.43,454.77l-43.05-43.05c8.97-27.8,2.69-60.09-19.73-82.52-21.53-21.53-51.12-28.7-78.03-20.63-3.59.9-4.48,5.38-1.79,8.07l31.39,31.39c10.76,10.76,13.45,28.7,4.48,42.16-11.66,16.14-34.08,17.94-48.43,4.48l-32.29-32.29c-2.69-2.69-7.18-1.79-8.07,1.79-7.18,26.91,0,57.4,20.63,78.03,22.42,22.42,54.71,28.7,82.52,19.73l43.05,43.05c-59.2,34.98-139.02,21.53-182.08-40.36-31.39-45.74-32.29-107.63-1.79-153.37,50.23-74.44,151.58-81.62,211.67-21.53,44.85,43.95,52.02,112.12,21.53,165.03Z"/>
  <g>
    <path class="cls-1" d="M847.6,365.08c-5.38-5.38-14.35-5.38-19.73,0l-16.14,17.04v-2.69C808.13,166.86,632.33-2.66,419.76.03,250.24,2.72,104.04,114.84,55.61,277.18c0,1.79-.9,2.69-.9,4.48,0,6.28,3.59,11.66,9.87,13.45,7.18,1.79,15.25-1.79,17.04-9.87C125.57,133.67,261.9,30.53,418.86,27.84c197.32-2.69,359.67,155.17,363.26,351.6v2.69l-17.04-17.04c-5.38-5.38-14.35-5.38-19.73,0-2.69,2.69-3.59,6.28-3.59,9.87s1.79,7.18,4.48,9.87l41.26,40.36c5.38,5.38,14.35,5.38,19.73,0l40.36-41.26c6.28-4.48,5.38-13.45,0-18.84Z"/>
    <path class="cls-1" d="M786.6,476.3c-7.18-1.79-15.25,1.79-17.04,9.87-43.95,151.58-180.28,254.73-337.24,257.42-197.32,2.69-359.67-154.27-363.26-351.6v-2.69l17.04,17.04c5.38,5.38,14.35,5.38,19.73,0,5.38-5.38,5.38-14.35,0-19.73l-41.26-40.36c-3.59-3.59-7.18-5.38-10.76-5.38s-7.18,1.79-9.87,4.48L3.59,386.61c-2.69,2.69-3.59,6.28-3.59,9.87s1.79,7.18,4.48,9.87c5.38,5.38,14.35,5.38,19.73,0l16.14-17.04v2.69c3.59,212.57,179.39,382.09,391.96,379.4,169.52-2.69,315.72-113.91,364.15-277.15,1.79-8.07-2.69-15.25-9.87-17.94Z"/>
  </g>
</svg>