<?xml version="1.0" encoding="UTF-8"?>
<svg id="Layer_1" data-name="Layer 1" xmlns="http://www.w3.org/2000/svg" viewBox="0 0 496.44 573.2">
  <defs>
    <style>
      .cls-1 {
        fill: #000;
        stroke-width: 0px;
      }
    </style>
  </defs>
  <path class="cls-1" d="M269.63,280.34c0-12.06-9.65-21.72-21.72-21.72s-21.72,9.65-21.72,21.72c0,8.44,4.83,15.68,12.06,19.3l-5.43,22.32c-1.21,4.22,1.81,7.84,6.03,7.84h18.7c4.22,0,7.24-3.62,6.03-7.84l-5.43-22.32c6.64-3.62,11.46-10.86,11.46-19.3Z"/>
  <path class="cls-1" d="M247.92,150.65c-19.3,0-35.59,15.68-35.59,35.59v34.99h71.18v-34.99c0-19.3-16.29-35.59-35.59-35.59Z"/>
  <path class="cls-1" d="M486.19,52.33L250.94.45c-1.81-.6-3.62-.6-5.43,0L10.25,52.33c-6.03,1.21-10.25,6.64-10.25,12.67v130.29c0,124.86,59.11,241.89,159.85,315.48l80.83,59.72c4.83,3.62,10.86,3.62,15.68,0l80.83-59.72c100.13-73.59,159.25-191.22,159.25-315.48V65c0-6.03-4.22-11.46-10.25-12.67ZM349.26,354.54c0,6.64-5.43,12.67-12.67,12.67h-177.34c-6.64,0-12.67-5.43-12.67-12.67v-120.64c0-6.64,5.43-12.67,12.67-12.67h18.1v-34.99c0-39.21,31.97-71.18,71.18-71.18s70.58,32.57,70.58,71.18v34.99h18.1c6.64,0,12.67,5.43,12.67,12.67v120.64h-.6Z"/>
</svg>