<?xml version="1.0" encoding="UTF-8"?>
<svg id="Layer_1" data-name="Layer 1" xmlns="http://www.w3.org/2000/svg" viewBox="0 0 1284.01 770.41">
  <defs>
    <style>
      .cls-1 {
        fill: #000;
        stroke-width: 0px;
      }
    </style>
  </defs>
  <path class="cls-1" d="M642.01,0c-171.2,0-278.2,85.6-321,256.8,64.2-85.6,139.1-117.7,224.7-96.3,48.84,12.21,83.75,47.64,122.39,86.86,62.95,63.89,135.79,137.84,294.92,137.84,171.2,0,278.2-85.6,321-256.8-64.2,85.6-139.1,117.7-224.7,96.3-48.84-12.21-83.75-47.64-122.39-86.86C873.98,73.95,801.13,0,642.01,0ZM321,385.2c-171.2,0-278.2,85.6-321,256.8,64.2-85.6,139.1-117.7,224.7-96.3,48.84,12.21,83.75,47.64,122.39,86.86,62.95,63.89,135.79,137.84,294.92,137.84,171.2,0,278.2-85.6,321-256.8-64.2,85.6-139.1,117.7-224.7,96.3-48.84-12.21-83.75-47.64-122.39-86.86-62.95-63.89-135.79-137.84-294.92-137.84Z"/>
</svg>